<svg xmlns="http://www.w3.org/2000/svg" viewBox="0 0 900 600" role="img" aria-label="Cap de Formentor illustrated map">
  <defs>
    <style>
      .bg{fill:#F5F0E8}
      .land{fill:none;stroke:#424632;stroke-width:1.25;stroke-linejoin:round;stroke-linecap:round}
      .sea-hatch{fill:none;stroke:#424632;stroke-width:.35;opacity:.35}
      .road{fill:none;stroke:#424632;stroke-width:.7;stroke-dasharray:2 3;opacity:.55}
      .label{font-family:'Cormorant Garamond','Playfair Display',serif;font-size:12px;fill:#424632;letter-spacing:.04em}
      .label-small{font-family:'Raleway',sans-serif;font-size:9px;fill:#8A8A80;letter-spacing:.22em;text-transform:uppercase}
      .label-title{font-family:'Playfair Display',serif;font-size:13px;fill:#1A1A1A;letter-spacing:.02em}
      .dot{fill:#424632}
      .dot-open{fill:#F5F0E8;stroke:#424632;stroke-width:1}
      .villa-pin{fill:#424632}
      .villa-ring{fill:none;stroke:#424632;stroke-width:1;opacity:.5}
    </style>
  </defs>

  <rect class="bg" width="900" height="600"/>

  <!-- Sea hatching SW of the peninsula (Bay of Pollensa) -->
  <g class="sea-hatch">
    <line x1="40"  y1="380" x2="480" y2="380"/>
    <line x1="60"  y1="410" x2="520" y2="410"/>
    <line x1="40"  y1="440" x2="500" y2="440"/>
    <line x1="80"  y1="470" x2="540" y2="470"/>
    <line x1="60"  y1="500" x2="520" y2="500"/>
    <line x1="100" y1="530" x2="560" y2="530"/>
    <line x1="80"  y1="560" x2="540" y2="560"/>
  </g>

  <!-- Sea hatching NE of the peninsula (open Mediterranean) -->
  <g class="sea-hatch">
    <line x1="760" y1="80"  x2="870" y2="80"/>
    <line x1="740" y1="120" x2="880" y2="120"/>
    <line x1="760" y1="160" x2="880" y2="160"/>
    <line x1="740" y1="200" x2="880" y2="200"/>
    <line x1="760" y1="240" x2="880" y2="240"/>
    <line x1="720" y1="280" x2="880" y2="280"/>
    <line x1="700" y1="320" x2="860" y2="320"/>
    <line x1="680" y1="360" x2="840" y2="360"/>
  </g>

  <!-- Peninsula outline (Cap de Formentor pointing NE) -->
  <path class="land" d="
    M 160 360
    C 200 330, 260 310, 320 290
    C 380 268, 430 250, 478 238
    C 530 225, 575 215, 620 198
    C 660 184, 695 168, 730 150
    C 760 136, 785 122, 810 102
    C 825 90, 838 80, 842 72
    L 830 70
    C 810 78, 790 88, 770 98
    C 740 112, 700 130, 660 148
    C 618 166, 572 182, 520 195
    C 470 208, 415 222, 370 235
    C 320 250, 270 268, 228 290
    C 198 306, 175 322, 150 340
    C 170 348, 175 355, 160 360 Z
  "/>

  <!-- Inner detail line suggesting hills -->
  <path class="land" style="opacity:.45" d="
    M 250 310
    C 310 292, 370 275, 430 258
    C 500 240, 560 222, 620 205
  "/>
  <path class="land" style="opacity:.45" d="
    M 320 330
    C 380 314, 450 296, 530 278
    C 600 260, 660 245, 710 230
  "/>

  <!-- Dashed road along the peninsula -->
  <path class="road" d="
    M 200 355
    C 260 338, 330 318, 400 298
    C 480 278, 560 258, 640 235
    C 700 218, 750 200, 800 178
  "/>

  <!-- Casa Marenya pin (central, on the peninsula) -->
  <g transform="translate(460,245)">
    <circle class="villa-ring" r="14"/>
    <circle class="villa-ring" r="22" style="opacity:.3"/>
    <circle class="villa-pin" r="4.5"/>
    <text class="label-title" x="14" y="-8">Casa Marenya</text>
    <text class="label-small" x="14" y="6">Cap de Formentor</text>
  </g>

  <!-- Four Seasons (just SE of villa) -->
  <g transform="translate(492,278)">
    <circle class="dot-open" r="3.2"/>
    <text class="label" x="8" y="4">Four Seasons Resort Mallorca</text>
    <text class="label-small" x="8" y="18">300 m · 4 min walk</text>
  </g>

  <!-- Formentor Beach (west of villa on the bay side) -->
  <g transform="translate(398,302)">
    <circle class="dot-open" r="3.2"/>
    <text class="label" x="-4" y="18" text-anchor="end">Platja de Formentor</text>
    <text class="label-small" x="-4" y="32" text-anchor="end">150 m · Blue flag bay</text>
  </g>

  <!-- Cap de Formentor Lighthouse (NE tip) -->
  <g transform="translate(820,95)">
    <circle class="dot" r="3"/>
    <text class="label" x="-6" y="-6" text-anchor="end">Cap de Formentor Lighthouse</text>
    <text class="label-small" x="-6" y="8" text-anchor="end">The end of the island</text>
  </g>

  <!-- Port de Pollensa (SW across the bay) -->
  <g transform="translate(200,470)">
    <circle class="dot" r="3.5"/>
    <text class="label" x="10" y="4">Port de Pollen&#231;a</text>
    <text class="label-small" x="10" y="18">20 min · Marina, Terrae (1*)</text>
  </g>

  <!-- Pollensa town -->
  <g transform="translate(130,530)">
    <circle class="dot-open" r="3"/>
    <text class="label" x="10" y="4">Pollen&#231;a town</text>
    <text class="label-small" x="10" y="18">30 min · Sunday market</text>
  </g>

  <!-- Palma Airport callout (off map, SW) -->
  <g transform="translate(50,560)">
    <path class="land" d="M 0 0 L 30 0" style="stroke-width:.7;opacity:.5"/>
    <text class="label" x="38" y="4">Palma Airport</text>
    <text class="label-small" x="38" y="18">60 min by road</text>
  </g>

  <!-- Compass -->
  <g transform="translate(830,520)">
    <circle r="20" fill="none" stroke="#424632" stroke-width=".5" opacity=".4"/>
    <line x1="0" y1="-18" x2="0" y2="18" stroke="#424632" stroke-width=".5" opacity=".5"/>
    <line x1="-18" y1="0" x2="18" y2="0" stroke="#424632" stroke-width=".5" opacity=".5"/>
    <text class="label-small" x="0" y="-24" text-anchor="middle">N</text>
  </g>

  <!-- Bay of Pollensa label -->
  <text class="label" x="280" y="560" style="font-style:italic;opacity:.55">Bay of Pollen&#231;a</text>

  <!-- Mediterranean label -->
  <text class="label" x="820" y="420" text-anchor="end" style="font-style:italic;opacity:.55">Mediterranean</text>

  <!-- Title strip -->
  <g transform="translate(50,50)">
    <text class="label-small">Cap de Formentor · Mallorca</text>
  </g>
</svg>
